<svg width="114" height="24" viewBox="0 0 114 24" fill="none" xmlns="http://www.w3.org/2000/svg">
<g id="Group 18">
<path id="Star 5" d="M10.0422 3.3688C10.3273 2.41866 11.6727 2.41866 11.9578 3.3688L13.2558 7.6948C13.3827 8.11776 13.7721 8.40741 14.2136 8.40741H18.5733C19.5227 8.40741 19.9378 9.60631 19.1916 10.1933L15.5312 13.0732C15.2083 13.3273 15.0736 13.753 15.1917 14.1465L16.557 18.6968C16.8377 19.6324 15.7485 20.3741 14.9809 19.7702L11.6183 17.1247C11.2555 16.8392 10.7445 16.8392 10.3817 17.1247L7.01913 19.7702C6.25151 20.3741 5.16228 19.6324 5.44298 18.6968L6.80831 14.1465C6.92639 13.753 6.79174 13.3273 6.46882 13.0732L2.80835 10.1933C2.06224 9.60631 2.47733 8.40741 3.42668 8.40741H7.78635C8.22794 8.40741 8.61725 8.11776 8.74416 7.6948L10.0422 3.3688Z" fill="#DEA32A"/>
<path id="Star 7" d="M56.0422 3.3688C56.3273 2.41866 57.6727 2.41866 57.9578 3.3688L59.2558 7.6948C59.3827 8.11776 59.7721 8.40741 60.2136 8.40741H64.5733C65.5227 8.40741 65.9378 9.60631 65.1916 10.1933L61.5312 13.0732C61.2083 13.3273 61.0736 13.753 61.1917 14.1465L62.557 18.6968C62.8377 19.6324 61.7485 20.3741 60.9809 19.7702L57.6183 17.1247C57.2555 16.8392 56.7445 16.8392 56.3817 17.1247L53.0191 19.7702C52.2515 20.3741 51.1623 19.6324 51.443 18.6968L52.8083 14.1465C52.9264 13.753 52.7917 13.3273 52.4688 13.0732L48.8084 10.1933C48.0622 9.60631 48.4773 8.40741 49.4267 8.40741H53.7864C54.2279 8.40741 54.6173 8.11776 54.7442 7.6948L56.0422 3.3688Z" fill="#DEA32A"/>
<path id="Star 6" d="M33.0422 3.3688C33.3273 2.41866 34.6727 2.41866 34.9578 3.3688L36.2558 7.6948C36.3827 8.11776 36.7721 8.40741 37.2136 8.40741H41.5733C42.5227 8.40741 42.9378 9.60631 42.1916 10.1933L38.5312 13.0732C38.2083 13.3273 38.0736 13.753 38.1917 14.1465L39.557 18.6968C39.8377 19.6324 38.7485 20.3741 37.9809 19.7702L34.6183 17.1247C34.2555 16.8392 33.7445 16.8392 33.3817 17.1247L30.0191 19.7702C29.2515 20.3741 28.1623 19.6324 28.443 18.6968L29.8083 14.1465C29.9264 13.753 29.7917 13.3273 29.4688 13.0732L25.8084 10.1933C25.0622 9.60631 25.4773 8.40741 26.4267 8.40741H30.7864C31.2279 8.40741 31.6173 8.11776 31.7442 7.6948L33.0422 3.3688Z" fill="#DEA32A"/>
<path id="Star 8" d="M79.0422 3.3688C79.3273 2.41866 80.6727 2.41866 80.9578 3.3688L82.2558 7.6948C82.3827 8.11776 82.7721 8.40741 83.2136 8.40741H87.5733C88.5227 8.40741 88.9378 9.60631 88.1916 10.1933L84.5312 13.0732C84.2083 13.3273 84.0736 13.753 84.1917 14.1465L85.557 18.6968C85.8377 19.6324 84.7485 20.3741 83.9809 19.7702L80.6183 17.1247C80.2555 16.8392 79.7445 16.8392 79.3817 17.1247L76.0191 19.7702C75.2515 20.3741 74.1623 19.6324 74.443 18.6968L75.8083 14.1465C75.9264 13.753 75.7917 13.3273 75.4688 13.0732L71.8084 10.1933C71.0622 9.60631 71.4773 8.40741 72.4267 8.40741H76.7864C77.2279 8.40741 77.6173 8.11776 77.7442 7.6948L79.0422 3.3688Z" fill="#DEA32A"/>
<path id="Star 9" d="M102.042 3.3688C102.327 2.41866 103.673 2.41866 103.958 3.3688L105.256 7.6948C105.383 8.11776 105.772 8.40741 106.214 8.40741H110.573C111.523 8.40741 111.938 9.60631 111.192 10.1933L107.531 13.0732C107.208 13.3273 107.074 13.753 107.192 14.1465L108.557 18.6968C108.838 19.6324 107.748 20.3741 106.981 19.7702L103.618 17.1247C103.256 16.8392 102.744 16.8392 102.382 17.1247L99.0191 19.7702C98.2515 20.3741 97.1623 19.6324 97.443 18.6968L98.8083 14.1465C98.9264 13.753 98.7917 13.3273 98.4688 13.0732L94.8084 10.1933C94.0622 9.60631 94.4773 8.40741 95.4267 8.40741H99.7864C100.228 8.40741 100.617 8.11776 100.744 7.6948L102.042 3.3688Z" fill="#E8E8E8" fill-opacity="0.7"/>
</g>
</svg>
